<?xml version="1.0" encoding="UTF-8" standalone="no"?>
<!DOCTYPE svg PUBLIC "-//W3C//DTD SVG 1.1//EN"
 "http://www.w3.org/Graphics/SVG/1.1/DTD/svg11.dtd">
<!-- Generated by graphviz version 2.47.0 (20210316.0004)
 -->
<!-- Title: fsm Pages: 1 -->
<svg width="569pt" height="392pt"
 viewBox="0.00 0.00 569.00 392.00" xmlns="http://www.w3.org/2000/svg" xmlns:xlink="http://www.w3.org/1999/xlink">
<g id="graph0" class="graph" transform="scale(1 1) rotate(0) translate(4 388)">
<title>fsm</title>
<polygon fill="white" stroke="transparent" points="-4,4 -4,-388 565,-388 565,4 -4,4"/>
<!-- undefined -->
<g id="node1" class="node">
<title>undefined</title>
<ellipse fill="none" stroke="black" cx="219" cy="-366" rx="45.49" ry="18"/>
<text text-anchor="middle" x="219" y="-362.3" font-family="Times,serif" font-size="14.00">undefined</text>
</g>
<!-- undefined&#45;&gt;undefined -->
<g id="edge1" class="edge">
<title>undefined&#45;&gt;undefined</title>
<path fill="none" stroke="black" d="M263.51,-369.88C274.39,-369.59 282.5,-368.3 282.5,-366 282.5,-364.49 279.01,-363.42 273.53,-362.78"/>
<polygon fill="black" stroke="black" points="273.71,-359.28 263.51,-362.12 273.26,-366.27 273.71,-359.28"/>
<text text-anchor="middle" x="304" y="-362.3" font-family="Times,serif" font-size="14.00">no_data</text>
</g>
<!-- undefined&#45;&gt;undefined -->
<g id="edge2" class="edge">
<title>undefined&#45;&gt;undefined</title>
<path fill="none" stroke="black" d="M261,-373.16C291.94,-375.22 325.5,-372.83 325.5,-366 325.5,-359.92 298.88,-357.36 271.2,-358.32"/>
<polygon fill="black" stroke="black" points="270.81,-354.84 261,-358.84 271.16,-361.83 270.81,-354.84"/>
<text text-anchor="middle" x="365" y="-362.3" font-family="Times,serif" font-size="14.00">no_data_timer</text>
</g>
<!-- down -->
<g id="node2" class="node">
<title>down</title>
<ellipse fill="none" stroke="black" cx="104" cy="-279" rx="30.59" ry="18"/>
<text text-anchor="middle" x="104" y="-275.3" font-family="Times,serif" font-size="14.00">down</text>
</g>
<!-- undefined&#45;&gt;down -->
<g id="edge3" class="edge">
<title>undefined&#45;&gt;down</title>
<path fill="none" stroke="black" d="M177.4,-358.63C145.73,-352.83 105.93,-343.16 96,-330 90.88,-323.22 90.77,-314.43 92.61,-306.11"/>
<polygon fill="black" stroke="black" points="96.01,-306.96 95.63,-296.37 89.32,-304.89 96.01,-306.96"/>
<text text-anchor="middle" x="113.5" y="-318.8" font-family="Times,serif" font-size="14.00">steady</text>
</g>
<!-- going_up -->
<g id="node3" class="node">
<title>going_up</title>
<ellipse fill="none" stroke="black" cx="252" cy="-192" rx="44.39" ry="18"/>
<text text-anchor="middle" x="252" y="-188.3" font-family="Times,serif" font-size="14.00">going_up</text>
</g>
<!-- undefined&#45;&gt;going_up -->
<g id="edge4" class="edge">
<title>undefined&#45;&gt;going_up</title>
<path fill="none" stroke="black" d="M255.95,-355.19C268.83,-349.87 282.04,-341.87 290,-330 315.3,-292.29 315.73,-268.9 296,-228 293.39,-222.59 289.5,-217.76 285.09,-213.55"/>
<polygon fill="black" stroke="black" points="287.22,-210.77 277.31,-207.04 282.73,-216.14 287.22,-210.77"/>
<text text-anchor="middle" x="333.5" y="-275.3" font-family="Times,serif" font-size="14.00">unsteady</text>
</g>
<!-- down&#45;&gt;undefined -->
<g id="edge5" class="edge">
<title>down&#45;&gt;undefined</title>
<path fill="none" stroke="black" d="M117.41,-295.63C126.94,-306.15 140.41,-319.89 154,-330 162.41,-336.25 172.07,-342.08 181.34,-347.12"/>
<polygon fill="black" stroke="black" points="179.92,-350.33 190.4,-351.88 183.18,-344.13 179.92,-350.33"/>
<text text-anchor="middle" x="175.5" y="-318.8" font-family="Times,serif" font-size="14.00">no_data</text>
</g>
<!-- down&#45;&gt;undefined -->
<g id="edge6" class="edge">
<title>down&#45;&gt;undefined</title>
<path fill="none" stroke="black" d="M133.18,-284.82C153.29,-289.48 179.46,-298.39 197,-315 203.63,-321.28 208.39,-329.91 211.74,-338.24"/>
<polygon fill="black" stroke="black" points="208.45,-339.43 215.06,-347.71 215.06,-337.11 208.45,-339.43"/>
<text text-anchor="middle" x="246.5" y="-318.8" font-family="Times,serif" font-size="14.00">no_data_timer</text>
</g>
<!-- down&#45;&gt;down -->
<g id="edge7" class="edge">
<title>down&#45;&gt;down</title>
<path fill="none" stroke="black" d="M133.87,-282.94C144.2,-282.98 152.55,-281.67 152.55,-279 152.55,-277.29 149.12,-276.14 143.94,-275.54"/>
<polygon fill="black" stroke="black" points="144.02,-272.04 133.87,-275.06 143.69,-279.04 144.02,-272.04"/>
<text text-anchor="middle" x="170.05" y="-275.3" font-family="Times,serif" font-size="14.00">steady</text>
</g>
<!-- down&#45;&gt;down -->
<g id="edge8" class="edge">
<title>down&#45;&gt;down</title>
<path fill="none" stroke="black" d="M132.78,-285.72C158.21,-288.5 187.55,-286.26 187.55,-279 187.55,-272.7 165.49,-270.18 143.04,-271.44"/>
<polygon fill="black" stroke="black" points="142.46,-267.97 132.78,-272.28 143.03,-274.95 142.46,-267.97"/>
<text text-anchor="middle" x="223.05" y="-275.3" font-family="Times,serif" font-size="14.00">steady_timer</text>
</g>
<!-- down&#45;&gt;going_up -->
<g id="edge9" class="edge">
<title>down&#45;&gt;going_up</title>
<path fill="none" stroke="black" d="M116.55,-262.17C125.89,-251.28 139.48,-237.19 154,-228 169.57,-218.15 188.29,-210.59 205.17,-205.06"/>
<polygon fill="black" stroke="black" points="206.36,-208.36 214.87,-202.04 204.28,-201.68 206.36,-208.36"/>
<text text-anchor="middle" x="178.5" y="-231.8" font-family="Times,serif" font-size="14.00">unsteady</text>
</g>
<!-- going_up&#45;&gt;undefined -->
<g id="edge16" class="edge">
<title>going_up&#45;&gt;undefined</title>
<path fill="none" stroke="black" d="M286.15,-203.54C312.3,-213.65 346.44,-231.77 362,-261 369.52,-275.12 369.83,-283.04 362,-297 343.48,-330.03 303.48,-347.2 270.49,-356.02"/>
<polygon fill="black" stroke="black" points="269.37,-352.69 260.51,-358.49 271.05,-359.48 269.37,-352.69"/>
<text text-anchor="middle" x="406.5" y="-275.3" font-family="Times,serif" font-size="14.00">no_data_timer</text>
</g>
<!-- going_up&#45;&gt;down -->
<g id="edge18" class="edge">
<title>going_up&#45;&gt;down</title>
<path fill="none" stroke="black" d="M239.38,-209.33C230.28,-220.16 217.14,-233.98 203,-243 184.28,-254.94 160.97,-263.44 141.67,-269.07"/>
<polygon fill="black" stroke="black" points="140.69,-265.71 131.99,-271.75 142.56,-272.45 140.69,-265.71"/>
<text text-anchor="middle" x="256.5" y="-231.8" font-family="Times,serif" font-size="14.00">steady_timer</text>
</g>
<!-- going_up&#45;&gt;going_up -->
<g id="edge15" class="edge">
<title>going_up&#45;&gt;going_up</title>
<path fill="none" stroke="black" d="M295.88,-194.58C306.4,-194.38 314.2,-193.52 314.2,-192 314.2,-191.03 311,-190.33 305.93,-189.89"/>
<polygon fill="black" stroke="black" points="306.03,-186.39 295.88,-189.42 305.7,-193.39 306.03,-186.39"/>
<text text-anchor="middle" x="335.7" y="-188.3" font-family="Times,serif" font-size="14.00">no_data</text>
</g>
<!-- going_up&#45;&gt;going_up -->
<g id="edge17" class="edge">
<title>going_up&#45;&gt;going_up</title>
<path fill="none" stroke="black" d="M294.82,-196.83C324.99,-198.1 357.2,-196.48 357.2,-192 357.2,-188.02 331.88,-186.31 305.1,-186.85"/>
<polygon fill="black" stroke="black" points="304.71,-183.36 294.82,-187.17 304.92,-190.35 304.71,-183.36"/>
<text text-anchor="middle" x="374.7" y="-188.3" font-family="Times,serif" font-size="14.00">steady</text>
</g>
<!-- going_up&#45;&gt;going_up -->
<g id="edge19" class="edge">
<title>going_up&#45;&gt;going_up</title>
<path fill="none" stroke="black" d="M293.65,-198.39C336.98,-201.66 392.2,-199.53 392.2,-192 392.2,-185.05 345.07,-182.7 303.73,-184.95"/>
<polygon fill="black" stroke="black" points="303.41,-181.47 293.65,-185.61 303.86,-188.45 303.41,-181.47"/>
<text text-anchor="middle" x="416.7" y="-188.3" font-family="Times,serif" font-size="14.00">unsteady</text>
</g>
<!-- up -->
<g id="node5" class="node">
<title>up</title>
<ellipse fill="none" stroke="black" cx="271" cy="-105" rx="27" ry="18"/>
<text text-anchor="middle" x="271" y="-101.3" font-family="Times,serif" font-size="14.00">up</text>
</g>
<!-- going_up&#45;&gt;up -->
<g id="edge20" class="edge">
<title>going_up&#45;&gt;up</title>
<path fill="none" stroke="black" d="M255.84,-173.8C258.46,-162.09 261.98,-146.34 264.97,-132.97"/>
<polygon fill="black" stroke="black" points="268.46,-133.41 267.23,-122.89 261.63,-131.88 268.46,-133.41"/>
<text text-anchor="middle" x="304.5" y="-144.8" font-family="Times,serif" font-size="14.00">unsteady_timer</text>
</g>
<!-- going_down -->
<g id="node4" class="node">
<title>going_down</title>
<ellipse fill="none" stroke="black" cx="173" cy="-18" rx="54.69" ry="18"/>
<text text-anchor="middle" x="173" y="-14.3" font-family="Times,serif" font-size="14.00">going_down</text>
</g>
<!-- going_down&#45;&gt;undefined -->
<g id="edge11" class="edge">
<title>going_down&#45;&gt;undefined</title>
<path fill="none" stroke="black" d="M120.15,-23.04C69.28,-30.15 0,-49.79 0,-104 0,-280 0,-280 0,-280 0,-315.91 103.61,-342.63 168.29,-355.82"/>
<polygon fill="black" stroke="black" points="167.83,-359.29 178.32,-357.82 169.2,-352.43 167.83,-359.29"/>
<text text-anchor="middle" x="39.5" y="-188.3" font-family="Times,serif" font-size="14.00">no_data_timer</text>
</g>
<!-- going_down&#45;&gt;down -->
<g id="edge12" class="edge">
<title>going_down&#45;&gt;down</title>
<path fill="none" stroke="black" d="M152.7,-35C147.09,-40.44 141.57,-46.94 138,-54 105.2,-118.89 102.04,-206.85 102.82,-250.74"/>
<polygon fill="black" stroke="black" points="99.32,-251 103.08,-260.9 106.32,-250.82 99.32,-251"/>
<text text-anchor="middle" x="145.5" y="-144.8" font-family="Times,serif" font-size="14.00">steady_timer</text>
</g>
<!-- going_down&#45;&gt;going_down -->
<g id="edge10" class="edge">
<title>going_down&#45;&gt;going_down</title>
<path fill="none" stroke="black" d="M222.2,-25.82C235.49,-25.4 245.6,-22.8 245.6,-18 245.6,-14.51 240.26,-12.18 232.24,-11.01"/>
<polygon fill="black" stroke="black" points="232.45,-7.52 222.2,-10.18 231.88,-14.5 232.45,-7.52"/>
<text text-anchor="middle" x="267.1" y="-14.3" font-family="Times,serif" font-size="14.00">no_data</text>
</g>
<!-- going_down&#45;&gt;up -->
<g id="edge13" class="edge">
<title>going_down&#45;&gt;up</title>
<path fill="none" stroke="black" d="M181.71,-35.8C187.76,-46.29 196.58,-59.55 207,-69 216.36,-77.49 228.14,-84.68 239.04,-90.29"/>
<polygon fill="black" stroke="black" points="237.78,-93.57 248.31,-94.81 240.85,-87.28 237.78,-93.57"/>
<text text-anchor="middle" x="231.5" y="-57.8" font-family="Times,serif" font-size="14.00">unsteady</text>
</g>
<!-- going_down&#45;&gt;up -->
<g id="edge14" class="edge">
<title>going_down&#45;&gt;up</title>
<path fill="none" stroke="black" d="M216.26,-29.19C230.6,-34.48 245.55,-42.36 256,-54 261.7,-60.35 265.24,-68.8 267.43,-76.95"/>
<polygon fill="black" stroke="black" points="264.05,-77.86 269.55,-86.91 270.9,-76.4 264.05,-77.86"/>
<text text-anchor="middle" x="306.5" y="-57.8" font-family="Times,serif" font-size="14.00">unsteady_timer</text>
</g>
<!-- up&#45;&gt;undefined -->
<g id="edge22" class="edge">
<title>up&#45;&gt;undefined</title>
<path fill="none" stroke="black" d="M298.11,-105.27C345.41,-105.65 442.16,-114.15 486,-174 495.46,-186.91 489.12,-194.31 486,-210 477.84,-251.04 480.48,-268.33 450,-297 402.18,-341.98 326.11,-357.36 274.44,-362.54"/>
<polygon fill="black" stroke="black" points="274.09,-359.05 264.45,-363.44 274.72,-366.02 274.09,-359.05"/>
<text text-anchor="middle" x="521.5" y="-231.8" font-family="Times,serif" font-size="14.00">no_data_timer</text>
</g>
<!-- up&#45;&gt;going_down -->
<g id="edge21" class="edge">
<title>up&#45;&gt;going_down</title>
<path fill="none" stroke="black" d="M244.67,-100.38C211.64,-95.24 157.88,-84.67 146,-69 139.95,-61.02 142.94,-51.5 148.76,-42.92"/>
<polygon fill="black" stroke="black" points="151.52,-45.07 155.01,-35.07 146.04,-40.72 151.52,-45.07"/>
<text text-anchor="middle" x="167.5" y="-57.8" font-family="Times,serif" font-size="14.00">no_data</text>
</g>
<!-- up&#45;&gt;going_down -->
<g id="edge24" class="edge">
<title>up&#45;&gt;going_down</title>
<path fill="none" stroke="black" d="M296.53,-98.79C326.94,-91.44 371.45,-76.39 353,-54 338.27,-36.13 282.14,-27.27 236.43,-22.94"/>
<polygon fill="black" stroke="black" points="236.53,-19.44 226.26,-22.04 235.91,-26.41 236.53,-19.44"/>
<text text-anchor="middle" x="392.5" y="-57.8" font-family="Times,serif" font-size="14.00">steady_timer</text>
</g>
<!-- up&#45;&gt;up -->
<g id="edge23" class="edge">
<title>up&#45;&gt;up</title>
<path fill="none" stroke="black" d="M297.79,-107.62C307.78,-107.71 316,-106.83 316,-105 316,-103.85 312.79,-103.08 307.94,-102.69"/>
<polygon fill="black" stroke="black" points="307.9,-99.19 297.79,-102.38 307.68,-106.18 307.9,-99.19"/>
<text text-anchor="middle" x="333.5" y="-101.3" font-family="Times,serif" font-size="14.00">steady</text>
</g>
<!-- up&#45;&gt;up -->
<g id="edge25" class="edge">
<title>up&#45;&gt;up</title>
<path fill="none" stroke="black" d="M297.21,-109.38C321.83,-111.38 351,-109.92 351,-105 351,-100.75 329.26,-99.08 307.48,-99.99"/>
<polygon fill="black" stroke="black" points="306.98,-96.51 297.21,-100.62 307.41,-103.5 306.98,-96.51"/>
<text text-anchor="middle" x="375.5" y="-101.3" font-family="Times,serif" font-size="14.00">unsteady</text>
</g>
<!-- up&#45;&gt;up -->
<g id="edge26" class="edge">
<title>up&#45;&gt;up</title>
<path fill="none" stroke="black" d="M297.03,-110.31C337.12,-115.02 400,-113.24 400,-105 400,-97.42 346.79,-95.31 307.06,-98.68"/>
<polygon fill="black" stroke="black" points="306.63,-95.21 297.03,-99.69 307.33,-102.17 306.63,-95.21"/>
<text text-anchor="middle" x="442.5" y="-101.3" font-family="Times,serif" font-size="14.00">unsteady_timer</text>
</g>
</g>
</svg>
