<?xml version="1.0" encoding="UTF-8" standalone="no"?>
<!DOCTYPE svg PUBLIC "-//W3C//DTD SVG 1.1//EN"
 "http://www.w3.org/Graphics/SVG/1.1/DTD/svg11.dtd">
<!-- Generated by graphviz version 2.43.0 (0)
 -->
<!-- Title: fsm Pages: 1 -->
<svg width="675pt" height="1138pt"
 viewBox="0.00 0.00 675.26 1138.31" xmlns="http://www.w3.org/2000/svg" xmlns:xlink="http://www.w3.org/1999/xlink">
<g id="graph0" class="graph" transform="scale(1 1) rotate(0) translate(4 1134.31)">
<title>fsm</title>
<polygon fill="white" stroke="transparent" points="-4,4 -4,-1134.31 671.26,-1134.31 671.26,4 -4,4"/>
<!-- undefined -->
<g id="node1" class="node">
<title>undefined</title>
<ellipse fill="none" stroke="black" cx="257.26" cy="-1037.68" rx="120.83" ry="92.76"/>
<text text-anchor="middle" x="257.26" y="-1033.98" font-family="Times,serif" font-size="14.00">undefined</text>
</g>
<!-- undefined&#45;&gt;undefined -->
<g id="edge1" class="edge">
<title>undefined&#45;&gt;undefined</title>
<path fill="none" stroke="black" d="M377.77,-1046.55C389.06,-1044.73 396.18,-1041.77 396.18,-1037.68 396.18,-1034.99 393.11,-1032.8 387.81,-1031.09"/>
<polygon fill="black" stroke="black" points="388.3,-1027.61 377.77,-1028.81 386.75,-1034.44 388.3,-1027.61"/>
<text text-anchor="middle" x="417.68" y="-1033.98" font-family="Times,serif" font-size="14.00">no_data</text>
</g>
<!-- undefined&#45;&gt;undefined -->
<g id="edge2" class="edge">
<title>undefined&#45;&gt;undefined</title>
<path fill="none" stroke="black" d="M375.05,-1059.72C410.7,-1058.85 439.18,-1051.51 439.18,-1037.68 439.18,-1025.2 415.99,-1018 385.27,-1016.08"/>
<polygon fill="black" stroke="black" points="385.2,-1012.57 375.05,-1015.64 384.9,-1019.57 385.2,-1012.57"/>
<text text-anchor="middle" x="478.68" y="-1033.98" font-family="Times,serif" font-size="14.00">no_data_timer</text>
</g>
<!-- down -->
<g id="node2" class="node">
<title>down</title>
<ellipse fill="none" stroke="black" cx="133.26" cy="-801.42" rx="103.89" ry="92.76"/>
<text text-anchor="middle" x="133.26" y="-797.72" font-family="Times,serif" font-size="14.00">down</text>
</g>
<!-- undefined&#45;&gt;down -->
<g id="edge3" class="edge">
<title>undefined&#45;&gt;down</title>
<path fill="none" stroke="black" d="M168.37,-974.5C154.55,-960.57 142.23,-944.64 134.26,-927.05 130.93,-919.69 128.55,-911.83 126.91,-903.77"/>
<polygon fill="black" stroke="black" points="130.36,-903.15 125.27,-893.86 123.45,-904.3 130.36,-903.15"/>
<text text-anchor="middle" x="151.76" y="-915.85" font-family="Times,serif" font-size="14.00">steady</text>
</g>
<!-- going_up -->
<g id="node3" class="node">
<title>going_up</title>
<ellipse fill="none" stroke="black" cx="279.26" cy="-565.15" rx="118.59" ry="92.76"/>
<text text-anchor="middle" x="279.26" y="-561.45" font-family="Times,serif" font-size="14.00">going_up</text>
</g>
<!-- undefined&#45;&gt;going_up -->
<g id="edge4" class="edge">
<title>undefined&#45;&gt;going_up</title>
<path fill="none" stroke="black" d="M338.59,-968.64C358.69,-947.09 377.52,-921.62 388.26,-894.05 418.15,-817.32 414.65,-786.78 388.26,-708.79 381.04,-687.44 369.21,-666.78 355.94,-648.11"/>
<polygon fill="black" stroke="black" points="358.7,-645.96 349.96,-639.96 353.05,-650.09 358.7,-645.96"/>
<text text-anchor="middle" x="433.76" y="-797.72" font-family="Times,serif" font-size="14.00">unsteady</text>
</g>
<!-- down&#45;&gt;undefined -->
<g id="edge5" class="edge">
<title>down&#45;&gt;undefined</title>
<path fill="none" stroke="black" d="M172.2,-887.42C178.7,-900.78 185.52,-914.37 192.26,-927.05 195.26,-932.69 198.41,-938.45 201.64,-944.24"/>
<polygon fill="black" stroke="black" points="198.81,-946.34 206.77,-953.34 204.91,-942.91 198.81,-946.34"/>
<text text-anchor="middle" x="213.76" y="-915.85" font-family="Times,serif" font-size="14.00">no_data</text>
</g>
<!-- down&#45;&gt;undefined -->
<g id="edge6" class="edge">
<title>down&#45;&gt;undefined</title>
<path fill="none" stroke="black" d="M205.52,-868.26C216.97,-881.74 227.56,-896.57 235.26,-912.05 238.96,-919.47 242.04,-927.41 244.62,-935.56"/>
<polygon fill="black" stroke="black" points="241.26,-936.57 247.41,-945.2 247.99,-934.62 241.26,-936.57"/>
<text text-anchor="middle" x="279.76" y="-915.85" font-family="Times,serif" font-size="14.00">no_data_timer</text>
</g>
<!-- down&#45;&gt;down -->
<g id="edge7" class="edge">
<title>down&#45;&gt;down</title>
<path fill="none" stroke="black" d="M236.9,-810.65C248.04,-808.87 255.21,-805.8 255.21,-801.42 255.21,-798.54 252.12,-796.23 246.85,-794.48"/>
<polygon fill="black" stroke="black" points="247.44,-791.02 236.9,-792.18 245.86,-797.84 247.44,-791.02"/>
<text text-anchor="middle" x="272.71" y="-797.72" font-family="Times,serif" font-size="14.00">steady</text>
</g>
<!-- down&#45;&gt;down -->
<g id="edge8" class="edge">
<title>down&#45;&gt;down</title>
<path fill="none" stroke="black" d="M234.27,-823.48C265.36,-822.77 290.21,-815.42 290.21,-801.42 290.21,-789 270.67,-781.81 244.57,-779.85"/>
<polygon fill="black" stroke="black" points="244.43,-776.34 234.27,-779.35 244.09,-783.33 244.43,-776.34"/>
<text text-anchor="middle" x="325.71" y="-797.72" font-family="Times,serif" font-size="14.00">steady_timer</text>
</g>
<!-- down&#45;&gt;going_up -->
<g id="edge9" class="edge">
<title>down&#45;&gt;going_up</title>
<path fill="none" stroke="black" d="M158.04,-711.12C162.95,-698.86 168.67,-686.74 175.26,-675.79 181.67,-665.15 189.27,-654.69 197.39,-644.72"/>
<polygon fill="black" stroke="black" points="200.26,-646.74 204.01,-636.83 194.9,-642.24 200.26,-646.74"/>
<text text-anchor="middle" x="199.76" y="-679.59" font-family="Times,serif" font-size="14.00">unsteady</text>
</g>
<!-- going_up&#45;&gt;undefined -->
<g id="edge17" class="edge">
<title>going_up&#45;&gt;undefined</title>
<path fill="none" stroke="black" d="M377.23,-617.82C410.55,-640.84 443.97,-671.33 462.26,-708.79 498.4,-782.77 500.39,-821.07 462.26,-894.05 442.14,-932.56 406.36,-962.78 370.26,-985.29"/>
<polygon fill="black" stroke="black" points="368.31,-982.38 361.58,-990.56 371.94,-988.36 368.31,-982.38"/>
<text text-anchor="middle" x="528.76" y="-797.72" font-family="Times,serif" font-size="14.00">no_data_timer</text>
</g>
<!-- going_up&#45;&gt;down -->
<g id="edge19" class="edge">
<title>going_up&#45;&gt;down</title>
<path fill="none" stroke="black" d="M244.25,-653.89C238.14,-666.57 231.42,-679.22 224.26,-690.79 218.11,-700.73 211.13,-710.74 203.83,-720.45"/>
<polygon fill="black" stroke="black" points="200.94,-718.46 197.64,-728.52 206.5,-722.72 200.94,-718.46"/>
<text text-anchor="middle" x="266.76" y="-679.59" font-family="Times,serif" font-size="14.00">steady_timer</text>
</g>
<!-- going_up&#45;&gt;going_up -->
<g id="edge16" class="edge">
<title>going_up&#45;&gt;going_up</title>
<path fill="none" stroke="black" d="M397.93,-571.07C409.04,-569.85 416.06,-567.88 416.06,-565.15 416.06,-563.37 413.04,-561.9 407.82,-560.76"/>
<polygon fill="black" stroke="black" points="408.35,-557.3 397.93,-559.24 407.28,-564.22 408.35,-557.3"/>
<text text-anchor="middle" x="437.56" y="-561.45" font-family="Times,serif" font-size="14.00">no_data</text>
</g>
<!-- going_up&#45;&gt;going_up -->
<g id="edge18" class="edge">
<title>going_up&#45;&gt;going_up</title>
<path fill="none" stroke="black" d="M396.97,-579.82C431.59,-579.15 459.06,-574.26 459.06,-565.15 459.06,-556.98 436.89,-552.2 407.27,-550.82"/>
<polygon fill="black" stroke="black" points="407.07,-547.31 396.97,-550.49 406.85,-554.31 407.07,-547.31"/>
<text text-anchor="middle" x="476.56" y="-561.45" font-family="Times,serif" font-size="14.00">steady</text>
</g>
<!-- going_up&#45;&gt;going_up -->
<g id="edge20" class="edge">
<title>going_up&#45;&gt;going_up</title>
<path fill="none" stroke="black" d="M394.74,-587.08C446.88,-588.62 494.06,-581.32 494.06,-565.15 494.06,-550.03 452.76,-542.66 404.75,-543.04"/>
<polygon fill="black" stroke="black" points="404.67,-539.54 394.74,-543.23 404.8,-546.54 404.67,-539.54"/>
<text text-anchor="middle" x="518.56" y="-561.45" font-family="Times,serif" font-size="14.00">unsteady</text>
</g>
<!-- up -->
<g id="node5" class="node">
<title>up</title>
<ellipse fill="none" stroke="black" cx="283.26" cy="-328.89" rx="91.85" ry="92.76"/>
<text text-anchor="middle" x="283.26" y="-325.19" font-family="Times,serif" font-size="14.00">up</text>
</g>
<!-- going_up&#45;&gt;up -->
<g id="edge21" class="edge">
<title>going_up&#45;&gt;up</title>
<path fill="none" stroke="black" d="M280.83,-472.24C281.06,-458.96 281.29,-445.23 281.52,-431.77"/>
<polygon fill="black" stroke="black" points="285.03,-431.6 281.7,-421.54 278.03,-431.48 285.03,-431.6"/>
<text text-anchor="middle" x="323.76" y="-443.32" font-family="Times,serif" font-size="14.00">unsteady_timer</text>
</g>
<!-- going_down -->
<g id="node4" class="node">
<title>going_down</title>
<ellipse fill="none" stroke="black" cx="182.26" cy="-92.63" rx="130.22" ry="92.76"/>
<text text-anchor="middle" x="182.26" y="-88.93" font-family="Times,serif" font-size="14.00">going_down</text>
</g>
<!-- going_down&#45;&gt;undefined -->
<g id="edge11" class="edge">
<title>going_down&#45;&gt;undefined</title>
<path fill="none" stroke="black" d="M93.09,-160.19C47.4,-202.4 1.26,-261.46 1.26,-327.89 1.26,-802.42 1.26,-802.42 1.26,-802.42 1.26,-844.01 -3.79,-860.12 20.26,-894.05 50.08,-936.1 96.57,-967.97 140.5,-990.8"/>
<polygon fill="black" stroke="black" points="139.04,-993.98 149.54,-995.39 142.21,-987.74 139.04,-993.98"/>
<text text-anchor="middle" x="40.76" y="-561.45" font-family="Times,serif" font-size="14.00">no_data_timer</text>
</g>
<!-- going_down&#45;&gt;down -->
<g id="edge13" class="edge">
<title>going_down&#45;&gt;down</title>
<path fill="none" stroke="black" d="M157.64,-183.66C156.33,-190.26 155.19,-196.85 154.26,-203.26 129.5,-375.75 128.19,-578.98 130.22,-698.35"/>
<polygon fill="black" stroke="black" points="126.73,-698.64 130.41,-708.57 133.72,-698.51 126.73,-698.64"/>
<text text-anchor="middle" x="168.76" y="-443.32" font-family="Times,serif" font-size="14.00">steady_timer</text>
</g>
<!-- going_down&#45;&gt;going_down -->
<g id="edge10" class="edge">
<title>going_down&#45;&gt;going_down</title>
<path fill="none" stroke="black" d="M312,-101.3C323.3,-99.47 330.37,-96.58 330.37,-92.63 330.37,-90.04 327.33,-87.91 322.04,-86.23"/>
<polygon fill="black" stroke="black" points="322.53,-82.75 312,-83.96 320.98,-89.58 322.53,-82.75"/>
<text text-anchor="middle" x="351.87" y="-88.93" font-family="Times,serif" font-size="14.00">no_data</text>
</g>
<!-- going_down&#45;&gt;going_down -->
<g id="edge12" class="edge">
<title>going_down&#45;&gt;going_down</title>
<path fill="none" stroke="black" d="M308.94,-114.59C345.02,-113.43 373.37,-106.11 373.37,-92.63 373.37,-80.47 350.29,-73.32 319.27,-71.19"/>
<polygon fill="black" stroke="black" points="319.11,-67.67 308.94,-70.67 318.76,-74.66 319.11,-67.67"/>
<text text-anchor="middle" x="390.87" y="-88.93" font-family="Times,serif" font-size="14.00">steady</text>
</g>
<!-- going_down&#45;&gt;up -->
<g id="edge14" class="edge">
<title>going_down&#45;&gt;up</title>
<path fill="none" stroke="black" d="M203.72,-184.19C207.42,-195.83 211.6,-207.45 216.26,-218.26 219.7,-226.22 223.64,-234.29 227.84,-242.26"/>
<polygon fill="black" stroke="black" points="224.85,-244.07 232.7,-251.19 231,-240.73 224.85,-244.07"/>
<text text-anchor="middle" x="240.76" y="-207.06" font-family="Times,serif" font-size="14.00">unsteady</text>
</g>
<!-- going_down&#45;&gt;up -->
<g id="edge15" class="edge">
<title>going_down&#45;&gt;up</title>
<path fill="none" stroke="black" d="M249.05,-172.52C255.29,-182.44 260.89,-192.8 265.26,-203.26 268.38,-210.72 270.97,-218.62 273.12,-226.69"/>
<polygon fill="black" stroke="black" points="269.77,-227.7 275.54,-236.58 276.57,-226.04 269.77,-227.7"/>
<text text-anchor="middle" x="311.76" y="-207.06" font-family="Times,serif" font-size="14.00">unsteady_timer</text>
</g>
<!-- up&#45;&gt;undefined -->
<g id="edge23" class="edge">
<title>up&#45;&gt;undefined</title>
<path fill="none" stroke="black" d="M374.07,-345.3C445.86,-362.78 541.51,-399.04 588.26,-472.52 632.47,-541.99 591.05,-575.49 588.26,-657.79 584.71,-762.97 632.26,-807.58 572.26,-894.05 529.04,-956.34 451.81,-991.88 384.63,-1011.91"/>
<polygon fill="black" stroke="black" points="383.43,-1008.61 374.8,-1014.75 385.38,-1015.33 383.43,-1008.61"/>
<text text-anchor="middle" x="627.76" y="-679.59" font-family="Times,serif" font-size="14.00">no_data_timer</text>
</g>
<!-- up&#45;&gt;going_down -->
<g id="edge22" class="edge">
<title>up&#45;&gt;going_down</title>
<path fill="none" stroke="black" d="M207.43,-276.16C189.61,-259.9 173,-240.34 163.26,-218.26 159.81,-210.42 157.85,-202.05 157.02,-193.52"/>
<polygon fill="black" stroke="black" points="160.51,-193.26 156.54,-183.43 153.52,-193.59 160.51,-193.26"/>
<text text-anchor="middle" x="184.76" y="-207.06" font-family="Times,serif" font-size="14.00">no_data</text>
</g>
<!-- up&#45;&gt;going_down -->
<g id="edge25" class="edge">
<title>up&#45;&gt;going_down</title>
<path fill="none" stroke="black" d="M350.05,-264.99C363.03,-245.38 369.54,-223.57 358.26,-203.26 345.33,-179.96 325.15,-160.97 303,-145.74"/>
<polygon fill="black" stroke="black" points="304.71,-142.67 294.43,-140.08 300.85,-148.51 304.71,-142.67"/>
<text text-anchor="middle" x="398.76" y="-207.06" font-family="Times,serif" font-size="14.00">steady_timer</text>
</g>
<!-- up&#45;&gt;up -->
<g id="edge24" class="edge">
<title>up&#45;&gt;up</title>
<path fill="none" stroke="black" d="M375.07,-335.23C386.03,-334.08 393.19,-331.97 393.19,-328.89 393.19,-326.92 390.25,-325.35 385.26,-324.17"/>
<polygon fill="black" stroke="black" points="385.5,-320.66 375.07,-322.56 384.4,-327.58 385.5,-320.66"/>
<text text-anchor="middle" x="410.69" y="-325.19" font-family="Times,serif" font-size="14.00">steady</text>
</g>
<!-- up&#45;&gt;up -->
<g id="edge26" class="edge">
<title>up&#45;&gt;up</title>
<path fill="none" stroke="black" d="M374.24,-343.63C404,-343.37 428.19,-338.46 428.19,-328.89 428.19,-320.45 409.33,-315.63 384.44,-314.44"/>
<polygon fill="black" stroke="black" points="384.33,-310.93 374.24,-314.15 384.14,-317.93 384.33,-310.93"/>
<text text-anchor="middle" x="452.69" y="-325.19" font-family="Times,serif" font-size="14.00">unsteady</text>
</g>
<!-- up&#45;&gt;up -->
<g id="edge27" class="edge">
<title>up&#45;&gt;up</title>
<path fill="none" stroke="black" d="M372.9,-350.16C425.12,-353.64 477.19,-346.55 477.19,-328.89 477.19,-312.37 431.62,-305.1 382.98,-307.09"/>
<polygon fill="black" stroke="black" points="382.69,-303.6 372.9,-307.63 383.07,-310.59 382.69,-303.6"/>
<text text-anchor="middle" x="519.69" y="-325.19" font-family="Times,serif" font-size="14.00">unsteady_timer</text>
</g>
</g>
</svg>
